<?xml version="1.0" encoding="UTF-8" standalone="no"?>
<!-- Created with Inkscape (http://www.inkscape.org/) -->

<svg
   xmlns:dc="http://purl.org/dc/elements/1.1/"
   xmlns:cc="http://creativecommons.org/ns#"
   xmlns:rdf="http://www.w3.org/1999/02/22-rdf-syntax-ns#"
   xmlns:svg="http://www.w3.org/2000/svg"
   xmlns="http://www.w3.org/2000/svg"
   xmlns:sodipodi="http://sodipodi.sourceforge.net/DTD/sodipodi-0.dtd"
   xmlns:inkscape="http://www.inkscape.org/namespaces/inkscape"
   width="210mm"
   height="148mm"
   viewBox="0 0 744.09449 524.40944"
   id="svg2"
   version="1.1"
   inkscape:version="0.91 r13725"
   sodipodi:docname="charakterbogen.svg">
  <defs
     id="defs4" />
  <sodipodi:namedview
     id="base"
     pagecolor="#ffffff"
     bordercolor="#666666"
     borderopacity="1.0"
     inkscape:pageopacity="0.0"
     inkscape:pageshadow="2"
     inkscape:zoom="2.8284271"
     inkscape:cx="569.88419"
     inkscape:cy="415.28128"
     inkscape:document-units="px"
     inkscape:current-layer="layer1"
     showgrid="false"
     showguides="true"
     inkscape:guide-bbox="true"
     inkscape:window-width="1366"
     inkscape:window-height="704"
     inkscape:window-x="0"
     inkscape:window-y="27"
     inkscape:window-maximized="1">
    <sodipodi:guide
       position="417.41072,855.00002"
       orientation="1,0"
       id="guide4526" />
    <sodipodi:guide
       position="707.14286,983.57145"
       orientation="0,1"
       id="guide4528" />
    <sodipodi:guide
       position="466.78572,943.57145"
       orientation="1,0"
       id="guide4534" />
    <sodipodi:guide
       position="694.64286,967.14288"
       orientation="0,1"
       id="guide4544" />
    <sodipodi:guide
       position="433.57143,953.57145"
       orientation="1,0"
       id="guide4546" />
    <sodipodi:guide
       position="516.78572,939.28574"
       orientation="1,0"
       id="guide4548" />
    <sodipodi:guide
       position="600.00001,936.07145"
       orientation="1,0"
       id="guide4550" />
    <sodipodi:guide
       position="679.83267,883.8835"
       orientation="0,1"
       id="guide4552" />
    <sodipodi:guide
       position="682.35805,800.04083"
       orientation="0,1"
       id="guide4554" />
  </sodipodi:namedview>
  <metadata
     id="metadata7">
    <rdf:RDF>
      <cc:Work
         rdf:about="">
        <dc:format>image/svg+xml</dc:format>
        <dc:type
           rdf:resource="http://purl.org/dc/dcmitype/StillImage" />
        <dc:title />
      </cc:Work>
    </rdf:RDF>
  </metadata>
  <g
     inkscape:label="Layer 1"
     inkscape:groupmode="layer"
     id="layer1"
     transform="translate(0,-527.95276)">
    <flowRoot
       xml:space="preserve"
       id="flowRoot4438"
       style="font-style:normal;font-weight:normal;font-size:7.5px;line-height:125%;font-family:Sans;letter-spacing:-2.75999999px;word-spacing:0px;fill:#000000;fill-opacity:1;stroke:none;stroke-width:1px;stroke-linecap:butt;stroke-linejoin:miter;stroke-opacity:1"><flowRegion
         id="flowRegion4440"><rect
           id="rect4442"
           width="34.285713"
           height="10"
           x="384.28571"
           y="81.647919"
           style="font-size:7.5px" /></flowRegion><flowPara
         id="flowPara4444" /></flowRoot>    <text
       xml:space="preserve"
       style="font-style:normal;font-weight:normal;font-size:5px;line-height:125%;font-family:Sans;letter-spacing:-2.75999999px;word-spacing:0px;fill:#000000;fill-opacity:1;stroke:none;stroke-width:1px;stroke-linecap:butt;stroke-linejoin:miter;stroke-opacity:1"
       x="433.57144"
       y="95.219345"
       id="text4446"
       sodipodi:linespacing="125%"><tspan
         sodipodi:role="line"
         id="tspan4448"
         x="433.57144"
         y="95.219345" /></text>
    <text
       xml:space="preserve"
       style="font-style:normal;font-weight:normal;font-size:5px;line-height:125%;font-family:Sans;letter-spacing:0px;word-spacing:0px;fill:#000000;fill-opacity:1;stroke:none;stroke-width:1px;stroke-linecap:butt;stroke-linejoin:miter;stroke-opacity:1"
       x="430.17856"
       y="87.362206"
       id="text4450"
       sodipodi:linespacing="125%"><tspan
         sodipodi:role="line"
         id="tspan4452"
         x="430.17856"
         y="87.362206" /></text>
    <path
       inkscape:connector-curvature="0"
       id="path4919"
       style="fill:none;stroke:#231f20;stroke-width:1.25;stroke-linecap:butt;stroke-linejoin:miter;stroke-miterlimit:4;stroke-dasharray:none;stroke-opacity:1"
       d="m 41.15348,1007.1612 671.97875,0 0,-454.06495 -671.97875,0 0,454.06495 z" />
    <text
       y="602.90399"
       x="75.962105"
       id="text4921"
       style="font-variant:normal;font-weight:bold;font-stretch:normal;font-size:20px;font-family:Helvetica;-inkscape-font-specification:Helvetica-Bold;writing-mode:lr-tb;fill:#231f20;fill-opacity:1;fill-rule:nonzero;stroke:none">
      <tspan
         id="tspan4923"
         sodipodi:role="line"
         y="602.90399"
         x="75.962105 89.302101 104.86211 119.30211 133.74211 148.18211 161.52211 167.08211 181.52211 193.74211 204.86211 212.64211 223.7621 234.88211 241.54211 252.66211 260.44211 272.66211 284.88211 297.10211 308.22211 320.44211">SQUARE Charakterbogen</tspan>
    </text>
    <text
       y="602.90399"
       x="326.01099"
       id="text4925"
       style="font-variant:normal;font-weight:bold;font-stretch:normal;font-size:8.75px;font-family:Helvetica;-inkscape-font-specification:Helvetica-Bold;writing-mode:lr-tb;fill:#231f20;fill-opacity:1;fill-rule:nonzero;stroke:none">
      <tspan
         id="tspan4927"
         sodipodi:role="line"
         y="602.90399"
         x="326.01099 330.87598 333.30847 338.17349">v 0.2</tspan>
    </text>
    <path
       inkscape:connector-curvature="0"
       id="path4929"
       style="fill:none;stroke:#231f20;stroke-width:2.5;stroke-linecap:butt;stroke-linejoin:miter;stroke-miterlimit:4;stroke-dasharray:none;stroke-opacity:1"
       d="m 426.02098,857.1825 83.79,0 0,-83.78875 -83.79,0 0,83.78875 z" />
    <path
       inkscape:connector-curvature="0"
       id="path4931"
       style="fill:none;stroke:#231f20;stroke-width:1.25;stroke-linecap:butt;stroke-linejoin:miter;stroke-miterlimit:4;stroke-dasharray:none;stroke-opacity:1"
       d="m 496.17848,855.5875 12.92375,0 0,-12.92375 -12.92375,0 0,12.92375 z" />
    <path
       inkscape:connector-curvature="0"
       id="path4933"
       style="fill:none;stroke:#231f20;stroke-width:1.25;stroke-linecap:butt;stroke-linejoin:miter;stroke-miterlimit:4;stroke-dasharray:none;stroke-opacity:1"
       d="m 496.17848,841.94625 12.92375,0 0,-12.92375 -12.92375,0 0,12.92375 z" />
    <path
       inkscape:connector-curvature="0"
       id="path4935"
       style="fill:none;stroke:#231f20;stroke-width:1.25;stroke-linecap:butt;stroke-linejoin:miter;stroke-miterlimit:4;stroke-dasharray:none;stroke-opacity:1"
       d="m 496.17848,828.305 12.92375,0 0,-12.92375 -12.92375,0 0,12.92375 z" />
    <path
       inkscape:connector-curvature="0"
       id="path4937"
       style="fill:none;stroke:#231f20;stroke-width:1.25;stroke-linecap:butt;stroke-linejoin:miter;stroke-miterlimit:4;stroke-dasharray:none;stroke-opacity:1"
       d="m 496.17848,814.6625 12.92375,0 0,-12.92375 -12.92375,0 0,12.92375 z" />
    <path
       inkscape:connector-curvature="0"
       id="path4939"
       style="fill:none;stroke:#231f20;stroke-width:1.25;stroke-linecap:butt;stroke-linejoin:miter;stroke-miterlimit:4;stroke-dasharray:none;stroke-opacity:1"
       d="m 496.17848,801.02125 12.92375,0 0,-12.92375 -12.92375,0 0,12.92375 z" />
    <path
       inkscape:connector-curvature="0"
       id="path4941"
       style="fill:none;stroke:#231f20;stroke-width:1.25;stroke-linecap:butt;stroke-linejoin:miter;stroke-miterlimit:4;stroke-dasharray:none;stroke-opacity:1"
       d="m 496.17848,787.38 12.92375,0 0,-12.92375 -12.92375,0 0,12.92375 z" />
    <path
       inkscape:connector-curvature="0"
       id="path4943"
       style="fill:none;stroke:#231f20;stroke-width:2.5;stroke-linecap:butt;stroke-linejoin:miter;stroke-miterlimit:4;stroke-dasharray:none;stroke-opacity:1"
       d="m 509.65348,857.1825 83.79,0 0,-83.78875 -83.79,0 0,83.78875 z" />
    <path
       inkscape:connector-curvature="0"
       id="path4945"
       style="fill:none;stroke:#231f20;stroke-width:1.25;stroke-linecap:butt;stroke-linejoin:miter;stroke-miterlimit:4;stroke-dasharray:none;stroke-opacity:1"
       d="m 579.81098,855.5875 12.92375,0 0,-12.92375 -12.92375,0 0,12.92375 z" />
    <path
       inkscape:connector-curvature="0"
       id="path4947"
       style="fill:none;stroke:#231f20;stroke-width:1.25;stroke-linecap:butt;stroke-linejoin:miter;stroke-miterlimit:4;stroke-dasharray:none;stroke-opacity:1"
       d="m 579.81098,841.94625 12.92375,0 0,-12.92375 -12.92375,0 0,12.92375 z" />
    <path
       inkscape:connector-curvature="0"
       id="path4949"
       style="fill:none;stroke:#231f20;stroke-width:1.25;stroke-linecap:butt;stroke-linejoin:miter;stroke-miterlimit:4;stroke-dasharray:none;stroke-opacity:1"
       d="m 579.81098,828.305 12.92375,0 0,-12.92375 -12.92375,0 0,12.92375 z" />
    <path
       inkscape:connector-curvature="0"
       id="path4951"
       style="fill:none;stroke:#231f20;stroke-width:1.25;stroke-linecap:butt;stroke-linejoin:miter;stroke-miterlimit:4;stroke-dasharray:none;stroke-opacity:1"
       d="m 579.81098,814.6625 12.92375,0 0,-12.92375 -12.92375,0 0,12.92375 z" />
    <path
       inkscape:connector-curvature="0"
       id="path4953"
       style="fill:none;stroke:#231f20;stroke-width:1.25;stroke-linecap:butt;stroke-linejoin:miter;stroke-miterlimit:4;stroke-dasharray:none;stroke-opacity:1"
       d="m 579.81098,801.02125 12.92375,0 0,-12.92375 -12.92375,0 0,12.92375 z" />
    <path
       inkscape:connector-curvature="0"
       id="path4955"
       style="fill:none;stroke:#231f20;stroke-width:1.25;stroke-linecap:butt;stroke-linejoin:miter;stroke-miterlimit:4;stroke-dasharray:none;stroke-opacity:1"
       d="m 579.81098,787.38 12.92375,0 0,-12.92375 -12.92375,0 0,12.92375 z" />
    <path
       inkscape:connector-curvature="0"
       id="path4957"
       style="fill:none;stroke:#231f20;stroke-width:2.5;stroke-linecap:butt;stroke-linejoin:miter;stroke-miterlimit:4;stroke-dasharray:none;stroke-opacity:1"
       d="m 593.28473,857.1825 83.79,0 0,-83.78875 -83.79,0 0,83.78875 z" />
    <path
       inkscape:connector-curvature="0"
       id="path4959"
       style="fill:none;stroke:#231f20;stroke-width:1.25;stroke-linecap:butt;stroke-linejoin:miter;stroke-miterlimit:4;stroke-dasharray:none;stroke-opacity:1"
       d="m 663.44223,855.5875 12.92375,0 0,-12.92375 -12.92375,0 0,12.92375 z" />
    <path
       inkscape:connector-curvature="0"
       id="path4961"
       style="fill:none;stroke:#231f20;stroke-width:1.25;stroke-linecap:butt;stroke-linejoin:miter;stroke-miterlimit:4;stroke-dasharray:none;stroke-opacity:1"
       d="m 663.44223,841.94625 12.92375,0 0,-12.92375 -12.92375,0 0,12.92375 z" />
    <path
       inkscape:connector-curvature="0"
       id="path4963"
       style="fill:none;stroke:#231f20;stroke-width:1.25;stroke-linecap:butt;stroke-linejoin:miter;stroke-miterlimit:4;stroke-dasharray:none;stroke-opacity:1"
       d="m 663.44223,828.305 12.92375,0 0,-12.92375 -12.92375,0 0,12.92375 z" />
    <path
       inkscape:connector-curvature="0"
       id="path4965"
       style="fill:none;stroke:#231f20;stroke-width:1.25;stroke-linecap:butt;stroke-linejoin:miter;stroke-miterlimit:4;stroke-dasharray:none;stroke-opacity:1"
       d="m 663.44223,814.6625 12.92375,0 0,-12.92375 -12.92375,0 0,12.92375 z" />
    <path
       inkscape:connector-curvature="0"
       id="path4967"
       style="fill:none;stroke:#231f20;stroke-width:1.25;stroke-linecap:butt;stroke-linejoin:miter;stroke-miterlimit:4;stroke-dasharray:none;stroke-opacity:1"
       d="m 663.44223,801.02125 12.92375,0 0,-12.92375 -12.92375,0 0,12.92375 z" />
    <path
       inkscape:connector-curvature="0"
       id="path4969"
       style="fill:none;stroke:#231f20;stroke-width:1.25;stroke-linecap:butt;stroke-linejoin:miter;stroke-miterlimit:4;stroke-dasharray:none;stroke-opacity:1"
       d="m 663.44223,787.38 12.92375,0 0,-12.92375 -12.92375,0 0,12.92375 z" />
    <path
       inkscape:connector-curvature="0"
       id="path4971"
       style="fill:none;stroke:#231f20;stroke-width:2.5;stroke-linecap:butt;stroke-linejoin:miter;stroke-miterlimit:4;stroke-dasharray:none;stroke-opacity:1"
       d="m 426.02098,773.5825 83.79,0 0,-83.78875 -83.79,0 0,83.78875 z" />
    <path
       inkscape:connector-curvature="0"
       id="path4973"
       style="fill:none;stroke:#231f20;stroke-width:1.25;stroke-linecap:butt;stroke-linejoin:miter;stroke-miterlimit:4;stroke-dasharray:none;stroke-opacity:1"
       d="m 496.17848,771.98875 12.92375,0 0,-12.92375 -12.92375,0 0,12.92375 z" />
    <path
       inkscape:connector-curvature="0"
       id="path4975"
       style="fill:none;stroke:#231f20;stroke-width:1.25;stroke-linecap:butt;stroke-linejoin:miter;stroke-miterlimit:4;stroke-dasharray:none;stroke-opacity:1"
       d="m 496.17848,758.3475 12.92375,0 0,-12.92375 -12.92375,0 0,12.92375 z" />
    <path
       inkscape:connector-curvature="0"
       id="path4977"
       style="fill:none;stroke:#231f20;stroke-width:1.25;stroke-linecap:butt;stroke-linejoin:miter;stroke-miterlimit:4;stroke-dasharray:none;stroke-opacity:1"
       d="m 496.17848,744.705 12.92375,0 0,-12.92375 -12.92375,0 0,12.92375 z" />
    <path
       inkscape:connector-curvature="0"
       id="path4979"
       style="fill:none;stroke:#231f20;stroke-width:1.25;stroke-linecap:butt;stroke-linejoin:miter;stroke-miterlimit:4;stroke-dasharray:none;stroke-opacity:1"
       d="m 496.17848,731.06375 12.92375,0 0,-12.92375 -12.92375,0 0,12.92375 z" />
    <path
       inkscape:connector-curvature="0"
       id="path4981"
       style="fill:none;stroke:#231f20;stroke-width:1.25;stroke-linecap:butt;stroke-linejoin:miter;stroke-miterlimit:4;stroke-dasharray:none;stroke-opacity:1"
       d="m 496.17848,717.42125 12.92375,0 0,-12.92375 -12.92375,0 0,12.92375 z" />
    <path
       inkscape:connector-curvature="0"
       id="path4983"
       style="fill:none;stroke:#231f20;stroke-width:1.25;stroke-linecap:butt;stroke-linejoin:miter;stroke-miterlimit:4;stroke-dasharray:none;stroke-opacity:1"
       d="m 496.17848,703.78 12.92375,0 0,-12.92375 -12.92375,0 0,12.92375 z" />
    <path
       inkscape:connector-curvature="0"
       id="path4985"
       style="fill:none;stroke:#231f20;stroke-width:2.5;stroke-linecap:butt;stroke-linejoin:miter;stroke-miterlimit:4;stroke-dasharray:none;stroke-opacity:1"
       d="m 509.65348,773.5825 83.79,0 0,-83.78875 -83.79,0 0,83.78875 z" />
    <path
       inkscape:connector-curvature="0"
       id="path4987"
       style="fill:none;stroke:#231f20;stroke-width:1.25;stroke-linecap:butt;stroke-linejoin:miter;stroke-miterlimit:4;stroke-dasharray:none;stroke-opacity:1"
       d="m 579.81098,771.98875 12.92375,0 0,-12.92375 -12.92375,0 0,12.92375 z" />
    <path
       inkscape:connector-curvature="0"
       id="path4989"
       style="fill:none;stroke:#231f20;stroke-width:1.25;stroke-linecap:butt;stroke-linejoin:miter;stroke-miterlimit:4;stroke-dasharray:none;stroke-opacity:1"
       d="m 579.81098,758.3475 12.92375,0 0,-12.92375 -12.92375,0 0,12.92375 z" />
    <path
       inkscape:connector-curvature="0"
       id="path4991"
       style="fill:none;stroke:#231f20;stroke-width:1.25;stroke-linecap:butt;stroke-linejoin:miter;stroke-miterlimit:4;stroke-dasharray:none;stroke-opacity:1"
       d="m 579.81098,744.705 12.92375,0 0,-12.92375 -12.92375,0 0,12.92375 z" />
    <path
       inkscape:connector-curvature="0"
       id="path4993"
       style="fill:none;stroke:#231f20;stroke-width:1.25;stroke-linecap:butt;stroke-linejoin:miter;stroke-miterlimit:4;stroke-dasharray:none;stroke-opacity:1"
       d="m 579.81098,731.06375 12.92375,0 0,-12.92375 -12.92375,0 0,12.92375 z" />
    <path
       inkscape:connector-curvature="0"
       id="path4995"
       style="fill:none;stroke:#231f20;stroke-width:1.25;stroke-linecap:butt;stroke-linejoin:miter;stroke-miterlimit:4;stroke-dasharray:none;stroke-opacity:1"
       d="m 579.81098,717.42125 12.92375,0 0,-12.92375 -12.92375,0 0,12.92375 z" />
    <path
       inkscape:connector-curvature="0"
       id="path4997"
       style="fill:none;stroke:#231f20;stroke-width:1.25;stroke-linecap:butt;stroke-linejoin:miter;stroke-miterlimit:4;stroke-dasharray:none;stroke-opacity:1"
       d="m 579.81098,703.78 12.92375,0 0,-12.92375 -12.92375,0 0,12.92375 z" />
    <path
       inkscape:connector-curvature="0"
       id="path4999"
       style="fill:none;stroke:#231f20;stroke-width:2.5;stroke-linecap:butt;stroke-linejoin:miter;stroke-miterlimit:4;stroke-dasharray:none;stroke-opacity:1"
       d="m 593.28473,773.5825 83.79,0 0,-83.78875 -83.79,0 0,83.78875 z" />
    <path
       inkscape:connector-curvature="0"
       id="path5001"
       style="fill:none;stroke:#231f20;stroke-width:1.25;stroke-linecap:butt;stroke-linejoin:miter;stroke-miterlimit:4;stroke-dasharray:none;stroke-opacity:1"
       d="m 663.44223,771.98875 12.92375,0 0,-12.92375 -12.92375,0 0,12.92375 z" />
    <path
       inkscape:connector-curvature="0"
       id="path5003"
       style="fill:none;stroke:#231f20;stroke-width:1.25;stroke-linecap:butt;stroke-linejoin:miter;stroke-miterlimit:4;stroke-dasharray:none;stroke-opacity:1"
       d="m 663.44223,758.3475 12.92375,0 0,-12.92375 -12.92375,0 0,12.92375 z" />
    <path
       inkscape:connector-curvature="0"
       id="path5005"
       style="fill:none;stroke:#231f20;stroke-width:1.25;stroke-linecap:butt;stroke-linejoin:miter;stroke-miterlimit:4;stroke-dasharray:none;stroke-opacity:1"
       d="m 663.44223,744.705 12.92375,0 0,-12.92375 -12.92375,0 0,12.92375 z" />
    <path
       inkscape:connector-curvature="0"
       id="path5007"
       style="fill:none;stroke:#231f20;stroke-width:1.25;stroke-linecap:butt;stroke-linejoin:miter;stroke-miterlimit:4;stroke-dasharray:none;stroke-opacity:1"
       d="m 663.44223,731.06375 12.92375,0 0,-12.92375 -12.92375,0 0,12.92375 z" />
    <path
       inkscape:connector-curvature="0"
       id="path5009"
       style="fill:none;stroke:#231f20;stroke-width:1.25;stroke-linecap:butt;stroke-linejoin:miter;stroke-miterlimit:4;stroke-dasharray:none;stroke-opacity:1"
       d="m 663.44223,717.42125 12.92375,0 0,-12.92375 -12.92375,0 0,12.92375 z" />
    <path
       inkscape:connector-curvature="0"
       id="path5011"
       style="fill:none;stroke:#231f20;stroke-width:1.25;stroke-linecap:butt;stroke-linejoin:miter;stroke-miterlimit:4;stroke-dasharray:none;stroke-opacity:1"
       d="m 663.44223,703.78 12.92375,0 0,-12.92375 -12.92375,0 0,12.92375 z" />
    <path
       inkscape:connector-curvature="0"
       id="path5013"
       style="fill:none;stroke:#231f20;stroke-width:2.5;stroke-linecap:butt;stroke-linejoin:miter;stroke-miterlimit:4;stroke-dasharray:none;stroke-opacity:1"
       d="m 426.02098,689.95125 83.79,0 0,-83.78875 -83.79,0 0,83.78875 z" />
    <path
       inkscape:connector-curvature="0"
       id="path5015"
       style="fill:none;stroke:#231f20;stroke-width:1.25;stroke-linecap:butt;stroke-linejoin:miter;stroke-miterlimit:4;stroke-dasharray:none;stroke-opacity:1"
       d="m 496.17848,688.35625 12.92375,0 0,-12.92375 -12.92375,0 0,12.92375 z" />
    <path
       inkscape:connector-curvature="0"
       id="path5017"
       style="fill:none;stroke:#231f20;stroke-width:1.25;stroke-linecap:butt;stroke-linejoin:miter;stroke-miterlimit:4;stroke-dasharray:none;stroke-opacity:1"
       d="m 496.17848,674.715 12.92375,0 0,-12.92375 -12.92375,0 0,12.92375 z" />
    <path
       inkscape:connector-curvature="0"
       id="path5019"
       style="fill:none;stroke:#231f20;stroke-width:1.25;stroke-linecap:butt;stroke-linejoin:miter;stroke-miterlimit:4;stroke-dasharray:none;stroke-opacity:1"
       d="m 496.17848,661.07375 12.92375,0 0,-12.92375 -12.92375,0 0,12.92375 z" />
    <path
       inkscape:connector-curvature="0"
       id="path5021"
       style="fill:none;stroke:#231f20;stroke-width:1.25;stroke-linecap:butt;stroke-linejoin:miter;stroke-miterlimit:4;stroke-dasharray:none;stroke-opacity:1"
       d="m 496.17848,647.43125 12.92375,0 0,-12.92375 -12.92375,0 0,12.92375 z" />
    <path
       inkscape:connector-curvature="0"
       id="path5023"
       style="fill:none;stroke:#231f20;stroke-width:1.25;stroke-linecap:butt;stroke-linejoin:miter;stroke-miterlimit:4;stroke-dasharray:none;stroke-opacity:1"
       d="m 496.17848,633.79 12.92375,0 0,-12.92375 -12.92375,0 0,12.92375 z" />
    <path
       inkscape:connector-curvature="0"
       id="path5025"
       style="fill:none;stroke:#231f20;stroke-width:1.25;stroke-linecap:butt;stroke-linejoin:miter;stroke-miterlimit:4;stroke-dasharray:none;stroke-opacity:1"
       d="m 496.17848,620.14875 12.92375,0 0,-12.92375 -12.92375,0 0,12.92375 z" />
    <path
       inkscape:connector-curvature="0"
       id="path5027"
       style="fill:none;stroke:#231f20;stroke-width:2.5;stroke-linecap:butt;stroke-linejoin:miter;stroke-miterlimit:4;stroke-dasharray:none;stroke-opacity:1"
       d="m 509.65348,689.95125 83.79,0 0,-83.78875 -83.79,0 0,83.78875 z" />
    <path
       inkscape:connector-curvature="0"
       id="path5029"
       style="fill:none;stroke:#231f20;stroke-width:1.25;stroke-linecap:butt;stroke-linejoin:miter;stroke-miterlimit:4;stroke-dasharray:none;stroke-opacity:1"
       d="m 579.81098,688.35625 12.92375,0 0,-12.92375 -12.92375,0 0,12.92375 z" />
    <path
       inkscape:connector-curvature="0"
       id="path5031"
       style="fill:none;stroke:#231f20;stroke-width:1.25;stroke-linecap:butt;stroke-linejoin:miter;stroke-miterlimit:4;stroke-dasharray:none;stroke-opacity:1"
       d="m 579.81098,674.715 12.92375,0 0,-12.92375 -12.92375,0 0,12.92375 z" />
    <path
       inkscape:connector-curvature="0"
       id="path5033"
       style="fill:none;stroke:#231f20;stroke-width:1.25;stroke-linecap:butt;stroke-linejoin:miter;stroke-miterlimit:4;stroke-dasharray:none;stroke-opacity:1"
       d="m 579.81098,661.07375 12.92375,0 0,-12.92375 -12.92375,0 0,12.92375 z" />
    <path
       inkscape:connector-curvature="0"
       id="path5035"
       style="fill:none;stroke:#231f20;stroke-width:1.25;stroke-linecap:butt;stroke-linejoin:miter;stroke-miterlimit:4;stroke-dasharray:none;stroke-opacity:1"
       d="m 579.81098,647.43125 12.92375,0 0,-12.92375 -12.92375,0 0,12.92375 z" />
    <path
       inkscape:connector-curvature="0"
       id="path5037"
       style="fill:none;stroke:#231f20;stroke-width:1.25;stroke-linecap:butt;stroke-linejoin:miter;stroke-miterlimit:4;stroke-dasharray:none;stroke-opacity:1"
       d="m 579.81098,633.79 12.92375,0 0,-12.92375 -12.92375,0 0,12.92375 z" />
    <path
       inkscape:connector-curvature="0"
       id="path5039"
       style="fill:none;stroke:#231f20;stroke-width:1.25;stroke-linecap:butt;stroke-linejoin:miter;stroke-miterlimit:4;stroke-dasharray:none;stroke-opacity:1"
       d="m 579.81098,620.14875 12.92375,0 0,-12.92375 -12.92375,0 0,12.92375 z" />
    <path
       inkscape:connector-curvature="0"
       id="path5041"
       style="fill:none;stroke:#231f20;stroke-width:2.5;stroke-linecap:butt;stroke-linejoin:miter;stroke-miterlimit:4;stroke-dasharray:none;stroke-opacity:1"
       d="m 593.28473,689.95125 83.79,0 0,-83.78875 -83.79,0 0,83.78875 z" />
    <path
       inkscape:connector-curvature="0"
       id="path5043"
       style="fill:none;stroke:#231f20;stroke-width:1.25;stroke-linecap:butt;stroke-linejoin:miter;stroke-miterlimit:4;stroke-dasharray:none;stroke-opacity:1"
       d="m 663.44223,688.35625 12.92375,0 0,-12.92375 -12.92375,0 0,12.92375 z" />
    <path
       inkscape:connector-curvature="0"
       id="path5045"
       style="fill:none;stroke:#231f20;stroke-width:1.25;stroke-linecap:butt;stroke-linejoin:miter;stroke-miterlimit:4;stroke-dasharray:none;stroke-opacity:1"
       d="m 663.44223,674.715 12.92375,0 0,-12.92375 -12.92375,0 0,12.92375 z" />
    <path
       inkscape:connector-curvature="0"
       id="path5047"
       style="fill:none;stroke:#231f20;stroke-width:1.25;stroke-linecap:butt;stroke-linejoin:miter;stroke-miterlimit:4;stroke-dasharray:none;stroke-opacity:1"
       d="m 663.44223,661.07375 12.92375,0 0,-12.92375 -12.92375,0 0,12.92375 z" />
    <path
       inkscape:connector-curvature="0"
       id="path5049"
       style="fill:none;stroke:#231f20;stroke-width:1.25;stroke-linecap:butt;stroke-linejoin:miter;stroke-miterlimit:4;stroke-dasharray:none;stroke-opacity:1"
       d="m 663.44223,647.43125 12.92375,0 0,-12.92375 -12.92375,0 0,12.92375 z" />
    <path
       inkscape:connector-curvature="0"
       id="path5051"
       style="fill:none;stroke:#231f20;stroke-width:1.25;stroke-linecap:butt;stroke-linejoin:miter;stroke-miterlimit:4;stroke-dasharray:none;stroke-opacity:1"
       d="m 663.44223,633.79 12.92375,0 0,-12.92375 -12.92375,0 0,12.92375 z" />
    <path
       inkscape:connector-curvature="0"
       id="path5053"
       style="fill:none;stroke:#231f20;stroke-width:1.25;stroke-linecap:butt;stroke-linejoin:miter;stroke-miterlimit:4;stroke-dasharray:none;stroke-opacity:1"
       d="m 663.44223,620.14875 12.92375,0 0,-12.92375 -12.92375,0 0,12.92375 z" />
    <text
       y="631.64899"
       x="75.962105"
       id="text5055"
       style="font-variant:normal;font-weight:bold;font-stretch:normal;font-size:12.5px;font-family:Helvetica;-inkscape-font-specification:Helvetica-Bold;writing-mode:lr-tb;fill:#231f20;fill-opacity:1;fill-rule:nonzero;stroke:none">
      <tspan
         id="tspan5057"
         sodipodi:role="line"
         y="631.64899"
         x="75.962105 84.987106 91.937103 103.04961 109.9996 187.1996 194.14961 201.09961 208.04961 214.9996 221.9496 228.8996 235.84961 242.79961 249.7496 256.69962 263.6496 270.59961 277.54962 284.4996 291.44962 298.3996 305.34961 312.29962 319.2496 326.19962 333.1496 340.09961 347.04959 353.9996 360.94962">Name __________________________</tspan>
      <tspan
         id="tspan5059"
         sodipodi:role="line"
         y="654.14899"
         x="75.974602 85.699608 92.649605 99.599602 106.54961 114.1871 117.66211 124.61211 131.5621 139.1996 143.36211 187.21211 194.16211 201.11211 208.0621 215.0121 221.96211 228.91211 235.86211 242.8121 249.7621 256.71213 263.66211 270.61212 277.5621 284.51212 291.4621 298.41211 305.36212 312.3121 319.26212 326.2121 333.16211 340.11212 347.0621 354.01212 360.9621">Geschlecht __________________________</tspan>
      <tspan
         id="tspan5061"
         sodipodi:role="line"
         y="676.64899"
         x="75.987106 85.012108 88.487106 92.649605 99.599602 104.4621 187.22461 194.17461 201.1246 208.07462 215.02461 221.97461 228.92461 235.8746 242.82462 249.77461 256.72461 263.67459 270.6246 277.57458 284.52463 291.47461 298.42462 305.3746 312.32462 319.2746 326.22461 333.17462 340.1246 347.07462 354.0246 360.97461">Alter __________________________</tspan>
      <tspan
         id="tspan5063"
         sodipodi:role="line"
         y="699.14899"
         x="75.999603 85.024605 91.974602 96.837105 104.4746 108.63711 187.23711 194.1871 201.1371 208.0871 215.03711 221.98711 228.9371 235.88712 242.83711 249.78711 256.73709 263.6871 270.63712 277.5871 284.53711 291.48709 298.4371 305.38708 312.33713 319.28711 326.23712 333.1871 340.13712 347.0871 354.03711 360.98712">Beruf __________________________</tspan>
      <tspan
         id="tspan5065"
         sodipodi:role="line"
         y="721.64899"
         x="76.012108 85.037102 92.674606 99.624603 106.57461 113.5246 121.1621 128.11211 135.7496 187.2496 194.1996 201.14961 208.09961 215.04961 221.9996 228.9496 235.8996 242.84959 249.79962 256.7496 263.69962 270.6496 277.59961 284.54959 291.4996 298.44962 305.3996 312.34961 319.29959 326.2496 333.19958 340.14963 347.09961 354.04962 360.9996">Aussehen __________________________</tspan>
      <tspan
         id="tspan5067"
         sodipodi:role="line"
         y="744.14899"
         x="76.024605 187.2621 194.2121 201.16211 208.11211 215.0621 222.0121 228.96211 235.91211 242.86211 249.8121 256.76212 263.7121 270.66211 277.61212 284.5621 291.51212 298.4621 305.41211 312.36209 319.3121 326.26212 333.2121 340.16211 347.11209 354.0621 361.01208">__________________________</tspan>
      <tspan
         y="31392"
         id="tspan5069"
         sodipodi:role="line"
         x="75.962105" />
      <tspan
         id="tspan5071"
         y="31392"
         sodipodi:role="line"
         x="75.962105" />
      <tspan
         id="tspan5073"
         y="31392"
         sodipodi:role="line"
         x="75.962105">Sonstiges</tspan>
      <tspan
         id="tspan5075"
         sodipodi:role="line"
         y="811.64899"
         x="76.037102 82.987106 89.937103 96.887108 103.8371 110.78711 117.73711 124.6871 131.6371 138.5871 145.53711 152.48711 159.4371 166.3871 173.33711 180.28711 187.23711 194.1871 201.1371 208.0871 215.03711 221.98711 228.9371 235.88712 242.83711 249.78711 256.73709 263.6871 270.63712 277.5871 284.53711 291.48709 298.4371 305.38708 312.33713 319.28711 326.23712 333.1871 340.13712 347.0871 354.03711 360.98712">__________________________________________</tspan>
      <tspan
         id="tspan5077"
         sodipodi:role="line"
         y="834.14899"
         x="76.037102 82.987106 89.937103 96.887108 103.8371 110.78711 117.73711 124.6871 131.6371 138.5871 145.53711 152.48711 159.4371 166.3871 173.33711 180.28711 187.23711 194.1871 201.1371 208.0871 215.03711 221.98711 228.9371 235.88712 242.83711 249.78711 256.73709 263.6871 270.63712 277.5871 284.53711 291.48709 298.4371 305.38708 312.33713 319.28711 326.23712 333.1871 340.13712 347.0871 354.03711 360.98712">__________________________________________</tspan>
      <tspan
         id="tspan5079"
         sodipodi:role="line"
         y="856.64899"
         x="76.037102 82.987106 89.937103 96.887108 103.8371 110.78711 117.73711 124.6871 131.6371 138.5871 145.53711 152.48711 159.4371 166.3871 173.33711 180.28711 187.23711 194.1871 201.1371 208.0871 215.03711 221.98711 228.9371 235.88712 242.83711 249.78711 256.73709 263.6871 270.63712 277.5871 284.53711 291.48709 298.4371 305.38708 312.33713 319.28711 326.23712 333.1871 340.13712 347.0871 354.03711 360.98712">__________________________________________</tspan>
      <tspan
         id="tspan5081"
         sodipodi:role="line"
         y="879.14899"
         x="76.037102 82.987106 89.937103 96.887108 103.8371 110.78711 117.73711 124.6871 131.6371 138.5871 145.53711 152.48711 159.4371 166.3871 173.33711 180.28711 187.23711 194.1871 201.1371 208.0871 215.03711 221.98711 228.9371 235.88712 242.83711 249.78711 256.73709 263.6871 270.63712 277.5871 284.53711 291.48709 298.4371 305.38708 312.33713 319.28711 326.23712 333.1871 340.13712 347.0871 354.03711 360.98712">__________________________________________</tspan>
      <tspan
         id="tspan5083"
         sodipodi:role="line"
         y="901.64899"
         x="76.037102 82.987106 89.937103 96.887108 103.8371 110.78711 117.73711 124.6871 131.6371 138.5871 145.53711 152.48711 159.4371 166.3871 173.33711 180.28711 187.23711 194.1871 201.1371 208.0871 215.03711 221.98711 228.9371 235.88712 242.83711 249.78711 256.73709 263.6871 270.63712 277.5871 284.53711 291.48709 298.4371 305.38708 312.33713 319.28711 326.23712 333.1871 340.13712 347.0871 354.03711 360.98712">__________________________________________</tspan>
      <tspan
         id="tspan5085"
         sodipodi:role="line"
         y="924.14899"
         x="76.037102 82.987106 89.937103 96.887108 103.8371 110.78711 117.73711 124.6871 131.6371 138.5871 145.53711 152.48711 159.4371 166.3871 173.33711 180.28711 187.23711 194.1871 201.1371 208.0871 215.03711 221.98711 228.9371 235.88712 242.83711 249.78711 256.73709 263.6871 270.63712 277.5871 284.53711 291.48709 298.4371 305.38708 312.33713 319.28711 326.23712 333.1871 340.13712 347.0871 354.03711 360.98712">__________________________________________</tspan>
      <tspan
         id="tspan5087"
         sodipodi:role="line"
         y="946.64899"
         x="76.037102 82.987106 89.937103 96.887108 103.8371 110.78711 117.73711 124.6871 131.6371 138.5871 145.53711 152.48711 159.4371 166.3871 173.33711 180.28711 187.23711 194.1871 201.1371 208.0871 215.03711 221.98711 228.9371 235.88712 242.83711 249.78711 256.73709 263.6871 270.63712 277.5871 284.53711 291.48709 298.4371 305.38708 312.33713 319.28711 326.23712 333.1871 340.13712 347.0871 354.03711 360.98712">__________________________________________</tspan>
      <tspan
         id="tspan5089"
         sodipodi:role="line"
         y="969.14899"
         x="76.037102 82.987106 89.937103 96.887108 103.8371 110.78711 117.73711 124.6871 131.6371 138.5871 145.53711 152.48711 159.4371 166.3871 173.33711 180.28711 187.23711 194.1871 201.1371 208.0871 215.03711 221.98711 228.9371 235.88712 242.83711 249.78711 256.73709 263.6871 270.63712 277.5871 284.53711 291.48709 298.4371 305.38708 312.33713 319.28711 326.23712 333.1871 340.13712 347.0871 354.03711 360.98712">__________________________________________</tspan>
    </text>
    <text
       sodipodi:linespacing="125%"
       id="text5091"
       y="617.32648"
       x="433.21429"
       style="font-style:normal;font-weight:normal;font-size:5px;line-height:125%;font-family:Sans;letter-spacing:0px;word-spacing:0px;fill:#333333;fill-opacity:1;stroke:none;stroke-width:1px;stroke-linecap:butt;stroke-linejoin:miter;stroke-opacity:1"
       xml:space="preserve"><tspan
         style="font-style:normal;font-variant:normal;font-weight:normal;font-stretch:normal;font-family:Helvetica;-inkscape-font-specification:Helvetica;fill:#333333"
         y="617.32648"
         x="433.21429"
         id="tspan5093"
         sodipodi:role="line">Kreativität</tspan><tspan
         style="font-style:normal;font-variant:normal;font-weight:normal;font-stretch:normal;font-family:Helvetica;-inkscape-font-specification:Helvetica;fill:#333333"
         id="tspan5095"
         y="623.57648"
         x="433.21429"
         sodipodi:role="line">Initiative</tspan><tspan
         style="font-style:normal;font-variant:normal;font-weight:normal;font-stretch:normal;font-family:Helvetica;-inkscape-font-specification:Helvetica;fill:#333333"
         id="tspan5097"
         y="629.82648"
         x="433.21429"
         sodipodi:role="line">Wahrnehmung</tspan></text>
    <text
       sodipodi:linespacing="125%"
       id="text5099"
       y="617.00507"
       x="516.289"
       style="font-style:normal;font-weight:normal;font-size:5px;line-height:125%;font-family:Sans;letter-spacing:0px;word-spacing:0px;fill:#333333;fill-opacity:1;stroke:none;stroke-width:1px;stroke-linecap:butt;stroke-linejoin:miter;stroke-opacity:1"
       xml:space="preserve"><tspan
         style="font-style:normal;font-variant:normal;font-weight:normal;font-stretch:normal;font-family:Helvetica;-inkscape-font-specification:Helvetica;fill:#333333"
         y="617.00507"
         x="516.289"
         id="tspan5101"
         sodipodi:role="line">Reaktion</tspan><tspan
         style="font-style:normal;font-variant:normal;font-weight:normal;font-stretch:normal;font-family:Helvetica;-inkscape-font-specification:Helvetica;fill:#333333"
         id="tspan5103"
         y="623.25507"
         x="516.289"
         sodipodi:role="line">Empathie</tspan><tspan
         style="font-style:normal;font-variant:normal;font-weight:normal;font-stretch:normal;font-family:Helvetica;-inkscape-font-specification:Helvetica;fill:#333333"
         id="tspan5105"
         y="629.50507"
         x="516.289"
         sodipodi:role="line">Intuition</tspan></text>
    <text
       sodipodi:linespacing="125%"
       id="text5107"
       y="616.8761"
       x="599.50696"
       style="font-style:normal;font-weight:normal;font-size:5px;line-height:125%;font-family:Sans;letter-spacing:0px;word-spacing:0px;fill:#333333;fill-opacity:1;stroke:none;stroke-width:1px;stroke-linecap:butt;stroke-linejoin:miter;stroke-opacity:1"
       xml:space="preserve"><tspan
         style="font-style:normal;font-variant:normal;font-weight:normal;font-stretch:normal;font-family:Helvetica;-inkscape-font-specification:Helvetica;fill:#333333"
         y="616.8761"
         x="599.50696"
         id="tspan5109"
         sodipodi:role="line">Fingerfertigkeit</tspan><tspan
         style="font-style:normal;font-variant:normal;font-weight:normal;font-stretch:normal;font-family:Helvetica;-inkscape-font-specification:Helvetica;fill:#333333"
         id="tspan5111"
         y="623.1261"
         x="599.50696"
         sodipodi:role="line">Körperbeherrschung</tspan><tspan
         style="font-style:normal;font-variant:normal;font-weight:normal;font-stretch:normal;font-family:Helvetica;-inkscape-font-specification:Helvetica;fill:#333333"
         y="629.3761"
         x="599.50696"
         sodipodi:role="line"
         id="tspan3484">Akrobatik</tspan><tspan
         style="font-style:normal;font-variant:normal;font-weight:normal;font-stretch:normal;font-family:Helvetica;-inkscape-font-specification:Helvetica;fill:#333333"
         id="tspan5113"
         y="635.6261"
         x="599.50696"
         sodipodi:role="line" /></text>
    <text
       sodipodi:linespacing="125%"
       id="text5115"
       y="700.53119"
       x="432.32101"
       style="font-style:normal;font-weight:normal;font-size:5px;line-height:125%;font-family:Sans;letter-spacing:0px;word-spacing:0px;fill:#333333;fill-opacity:1;stroke:none;stroke-width:1px;stroke-linecap:butt;stroke-linejoin:miter;stroke-opacity:1"
       xml:space="preserve"><tspan
         style="font-style:normal;font-variant:normal;font-weight:normal;font-stretch:normal;font-family:Helvetica;-inkscape-font-specification:Helvetica;fill:#333333"
         y="700.53119"
         x="432.32101"
         id="tspan5117"
         sodipodi:role="line">Konzentration</tspan><tspan
         style="font-style:normal;font-variant:normal;font-weight:normal;font-stretch:normal;font-family:Helvetica;-inkscape-font-specification:Helvetica;fill:#333333"
         id="tspan5119"
         y="706.78119"
         x="432.32101"
         sodipodi:role="line">Erinnerung</tspan><tspan
         style="font-style:normal;font-variant:normal;font-weight:normal;font-stretch:normal;font-family:Helvetica;-inkscape-font-specification:Helvetica;fill:#333333"
         id="tspan5121"
         y="713.03119"
         x="432.32101"
         sodipodi:role="line">Lernen</tspan><tspan
         style="font-style:normal;font-variant:normal;font-weight:normal;font-stretch:normal;font-family:Helvetica;-inkscape-font-specification:Helvetica;fill:#333333"
         id="tspan5123"
         y="719.28119"
         x="432.32101"
         sodipodi:role="line" /></text>
    <text
       sodipodi:linespacing="125%"
       id="text5125"
       y="700.53119"
       x="516.38898"
       style="font-style:normal;font-weight:normal;font-size:5px;line-height:125%;font-family:Sans;letter-spacing:0px;word-spacing:0px;fill:#333333;fill-opacity:1;stroke:none;stroke-width:1px;stroke-linecap:butt;stroke-linejoin:miter;stroke-opacity:1"
       xml:space="preserve"><tspan
         style="font-style:normal;font-variant:normal;font-weight:normal;font-stretch:normal;font-family:Helvetica;-inkscape-font-specification:Helvetica;fill:#333333"
         y="700.53119"
         x="516.38898"
         id="tspan5127"
         sodipodi:role="line">Durchhaltewille</tspan><tspan
         style="font-style:normal;font-variant:normal;font-weight:normal;font-stretch:normal;font-family:Helvetica;-inkscape-font-specification:Helvetica;fill:#333333"
         id="tspan5129"
         y="706.78119"
         x="516.38898"
         sodipodi:role="line">Selbstvertrauen</tspan><tspan
         style="font-style:normal;font-variant:normal;font-weight:normal;font-stretch:normal;font-family:Helvetica;-inkscape-font-specification:Helvetica;fill:#333333"
         id="tspan5131"
         y="713.03119"
         x="516.38898"
         sodipodi:role="line">Willenstärke</tspan></text>
    <text
       sodipodi:linespacing="125%"
       id="text5133"
       y="700.53119"
       x="599.60693"
       style="font-style:normal;font-weight:normal;font-size:5px;line-height:125%;font-family:Sans;letter-spacing:0px;word-spacing:0px;fill:#333333;fill-opacity:1;stroke:none;stroke-width:1px;stroke-linecap:butt;stroke-linejoin:miter;stroke-opacity:1"
       xml:space="preserve"><tspan
         style="font-style:normal;font-variant:normal;font-weight:normal;font-stretch:normal;font-family:Helvetica;-inkscape-font-specification:Helvetica;fill:#333333"
         y="700.53119"
         x="599.60693"
         id="tspan5135"
         sodipodi:role="line">Zähigkeit</tspan><tspan
         style="font-style:normal;font-variant:normal;font-weight:normal;font-stretch:normal;font-family:Helvetica;-inkscape-font-specification:Helvetica;fill:#333333"
         id="tspan5137"
         y="706.78119"
         x="599.60693"
         sodipodi:role="line">Kondition</tspan><tspan
         style="font-style:normal;font-variant:normal;font-weight:normal;font-stretch:normal;font-family:Helvetica;-inkscape-font-specification:Helvetica;fill:#333333"
         id="tspan5139"
         y="713.03119"
         x="599.60693"
         sodipodi:role="line">Ausdauer</tspan></text>
    <text
       sodipodi:linespacing="125%"
       id="text5141"
       y="783.76617"
       x="599.50696"
       style="font-style:normal;font-weight:normal;font-size:5px;line-height:125%;font-family:Sans;letter-spacing:0px;word-spacing:0px;fill:#333333;fill-opacity:1;stroke:none;stroke-width:1px;stroke-linecap:butt;stroke-linejoin:miter;stroke-opacity:1"
       xml:space="preserve"><tspan
         style="font-style:normal;font-variant:normal;font-weight:normal;font-stretch:normal;font-family:Helvetica;-inkscape-font-specification:Helvetica;fill:#333333"
         y="783.76617"
         x="599.50696"
         id="tspan5143"
         sodipodi:role="line">Körperkraft</tspan><tspan
         style="font-style:normal;font-variant:normal;font-weight:normal;font-stretch:normal;font-family:Helvetica;-inkscape-font-specification:Helvetica;fill:#333333"
         id="tspan5145"
         y="790.01617"
         x="599.50696"
         sodipodi:role="line">Geschwindigkeit</tspan><tspan
         style="font-style:normal;font-variant:normal;font-weight:normal;font-stretch:normal;font-family:Helvetica;-inkscape-font-specification:Helvetica;fill:#333333"
         y="796.26617"
         x="599.50696"
         sodipodi:role="line"
         id="tspan3486">Athlethik</tspan></text>
    <text
       sodipodi:linespacing="125%"
       id="text5147"
       y="783.97217"
       x="516.289"
       style="font-style:normal;font-weight:normal;font-size:5px;line-height:125%;font-family:Sans;letter-spacing:0px;word-spacing:0px;fill:#333333;fill-opacity:1;stroke:none;stroke-width:1px;stroke-linecap:butt;stroke-linejoin:miter;stroke-opacity:1"
       xml:space="preserve"><tspan
         style="font-style:normal;font-variant:normal;font-weight:normal;font-stretch:normal;font-family:Helvetica;-inkscape-font-specification:Helvetica;fill:#333333"
         y="783.97217"
         x="516.289"
         id="tspan5149"
         sodipodi:role="line">Durchsetzungsvermögen</tspan><tspan
         style="font-style:normal;font-variant:normal;font-weight:normal;font-stretch:normal;font-family:Helvetica;-inkscape-font-specification:Helvetica;fill:#333333"
         id="tspan5151"
         y="790.22217"
         x="516.289"
         sodipodi:role="line">Charme</tspan><tspan
         style="font-style:normal;font-variant:normal;font-weight:normal;font-stretch:normal;font-family:Helvetica;-inkscape-font-specification:Helvetica;fill:#333333"
         id="tspan5153"
         y="796.47217"
         x="516.289"
         sodipodi:role="line">Ausstrahlung</tspan></text>
    <text
       sodipodi:linespacing="125%"
       id="text5155"
       y="784.12598"
       x="433.64285"
       style="font-style:normal;font-weight:normal;font-size:5px;line-height:125%;font-family:Sans;letter-spacing:0px;word-spacing:0px;fill:#333333;fill-opacity:1;stroke:none;stroke-width:1px;stroke-linecap:butt;stroke-linejoin:miter;stroke-opacity:1"
       xml:space="preserve"><tspan
         style="font-style:normal;font-variant:normal;font-weight:normal;font-stretch:normal;font-family:Helvetica;-inkscape-font-specification:Helvetica;fill:#333333"
         y="784.12598"
         x="433.64285"
         id="tspan5157"
         sodipodi:role="line">Intelligenz</tspan><tspan
         style="font-style:normal;font-variant:normal;font-weight:normal;font-stretch:normal;font-family:Helvetica;-inkscape-font-specification:Helvetica;fill:#333333"
         id="tspan5159"
         y="790.37598"
         x="433.64285"
         sodipodi:role="line">Logik</tspan><tspan
         style="font-style:normal;font-variant:normal;font-weight:normal;font-stretch:normal;font-family:Helvetica;-inkscape-font-specification:Helvetica;fill:#333333"
         id="tspan5161"
         y="796.62598"
         x="433.64285"
         sodipodi:role="line">Deduktion</tspan></text>
    <text
       sodipodi:linespacing="125%"
       id="text5163"
       y="596.74078"
       x="467.98062"
       style="font-style:normal;font-variant:normal;font-weight:bold;font-stretch:normal;font-size:12.5px;line-height:125%;font-family:Helvetica;-inkscape-font-specification:'Helvetica Bold';text-align:center;letter-spacing:0px;word-spacing:0px;text-anchor:middle;fill:#000000;fill-opacity:1;stroke:none;stroke-width:1px;stroke-linecap:butt;stroke-linejoin:miter;stroke-opacity:1"
       xml:space="preserve"><tspan
         style="font-style:normal;font-variant:normal;font-weight:bold;font-stretch:normal;font-family:Helvetica;-inkscape-font-specification:'Helvetica Bold';text-align:center;text-anchor:middle"
         y="596.74078"
         x="467.98062"
         id="tspan5165"
         sodipodi:role="line">mental</tspan></text>
    <text
       sodipodi:linespacing="125%"
       id="text5167"
       y="596.74078"
       x="522.32184"
       style="font-style:normal;font-variant:normal;font-weight:bold;font-stretch:normal;font-size:12.5px;line-height:125%;font-family:Sans;-inkscape-font-specification:'Sans Bold';letter-spacing:0px;word-spacing:0px;fill:#000000;fill-opacity:1;stroke:none;stroke-width:1px;stroke-linecap:butt;stroke-linejoin:miter;stroke-opacity:1"
       xml:space="preserve"><tspan
         style="font-style:normal;font-variant:normal;font-weight:bold;font-stretch:normal;font-family:Helvetica;-inkscape-font-specification:'Helvetica Bold'"
         y="596.74078"
         x="522.32184"
         id="tspan5169"
         sodipodi:role="line">emotional</tspan></text>
    <text
       sodipodi:linespacing="125%"
       id="text5171"
       y="596.74078"
       x="608.14496"
       style="font-style:normal;font-weight:normal;font-size:12.5px;line-height:125%;font-family:Sans;letter-spacing:0px;word-spacing:0px;fill:#000000;fill-opacity:1;stroke:none;stroke-width:1px;stroke-linecap:butt;stroke-linejoin:miter;stroke-opacity:1"
       xml:space="preserve"><tspan
         style="font-style:normal;font-variant:normal;font-weight:bold;font-stretch:normal;font-family:Helvetica;-inkscape-font-specification:'Helvetica Bold'"
         y="596.74078"
         x="608.14496"
         id="tspan5173"
         sodipodi:role="line">physisch</tspan></text>
    <text
       transform="matrix(0,-1,1,0,0,0)"
       sodipodi:linespacing="125%"
       id="text5175"
       y="417.1875"
       x="-771.27673"
       style="font-style:normal;font-variant:normal;font-weight:bold;font-stretch:normal;font-size:12.5px;line-height:125%;font-family:Helvetica;-inkscape-font-specification:'Helvetica Bold';letter-spacing:0px;word-spacing:0px;writing-mode:lr-tb;fill:#000000;fill-opacity:1;stroke:none;stroke-width:1px;stroke-linecap:butt;stroke-linejoin:miter;stroke-opacity:1"
       xml:space="preserve"><tspan
         y="417.1875"
         x="-771.27673"
         id="tspan5177"
         sodipodi:role="line">Belastbarkeit</tspan></text>
    <text
       transform="matrix(0,-1,1,0,0,0)"
       sodipodi:linespacing="125%"
       id="text5179"
       y="417.1875"
       x="-669.20465"
       style="font-style:normal;font-variant:normal;font-weight:bold;font-stretch:normal;font-size:12.5px;line-height:125%;font-family:Helvetica;-inkscape-font-specification:'Helvetica Bold';letter-spacing:0px;word-spacing:0px;writing-mode:lr-tb;fill:#000000;fill-opacity:1;stroke:none;stroke-width:1px;stroke-linecap:butt;stroke-linejoin:miter;stroke-opacity:1"
       xml:space="preserve"><tspan
         y="417.1875"
         x="-669.20465"
         id="tspan5181"
         sodipodi:role="line">Agilität</tspan></text>
    <text
       transform="matrix(0,-1,1,0,0,0)"
       sodipodi:linespacing="125%"
       id="text5183"
       y="417.1875"
       x="-834.41882"
       style="font-style:normal;font-variant:normal;font-weight:bold;font-stretch:normal;font-size:12.5px;line-height:125%;font-family:Helvetica;-inkscape-font-specification:'Helvetica Bold';letter-spacing:0px;word-spacing:0px;writing-mode:lr-tb;fill:#000000;fill-opacity:1;stroke:none;stroke-width:1px;stroke-linecap:butt;stroke-linejoin:miter;stroke-opacity:1"
       xml:space="preserve"><tspan
         y="417.1875"
         x="-834.41882"
         id="tspan5185"
         sodipodi:role="line">Stärke</tspan></text>
  </g>
</svg>
